# xmcd CD database file
#
# Track frame offsets:
#	150
#	15585
#	31349
#	44423
#	59521
#	73403
#	84776
#	99483
#	112022
#	123901
#	137127
#	149982
#	160818
#	176510
#	189199
#	202357
#	210918
#	224486
#
# Disc length: 3240 seconds
#
# Revision: 0
# Processed by: cddbd v1.5.2PL0 Copyright (c) Steve Scherf et al.
# Submitted via: CDex 1.70beta2
#
DISCID=120ca612
DTITLE=Jennifer Lind - Cowboy State Of Mind
DYEAR=2009
DGENRE=Country
TTITLE0=Cowboy State of Mind
TTITLE1=There's Gonna be a Rodeo
TTITLE2=Nightsong
TTITLE3=Counting the Cars
TTITLE4=Coming Back Alone
TTITLE5=I Learned About Lovin' From You
TTITLE6=Riverbend
TTITLE7=Feed Lot Cowboy
TTITLE8=Fair and Tender Ladies
TTITLE9=Old Cowboy
TTITLE10=Cowboy Poetry
TTITLE11=Cowboy Lullaby
TTITLE12=Lovesong to The Moon
TTITLE13=Vapor Trails
TTITLE14=Cookee, Cowboy Fortuneteller
TTITLE15=A Raindrop
TTITLE16=Looking Back
TTITLE17=Last Go 'Round (On the Merry-Go-Round)
EXTD=YEAR: 2009
EXTT0=
EXTT1=
EXTT2=
EXTT3=
EXTT4=
EXTT5=
EXTT6=
EXTT7=
EXTT8=
EXTT9=
EXTT10=
EXTT11=
EXTT12=
EXTT13=
EXTT14=
EXTT15=
EXTT16=
EXTT17=
PLAYORDER=
